<?xml version="1.0" encoding="UTF-8" standalone="no"?>
<!-- Created with Inkscape (http://www.inkscape.org/) -->

<svg
   width="186.47023mm"
   height="64.337318mm"
   viewBox="0 0 186.47023 64.337318"
   version="1.1"
   id="svg1"
   xmlns="http://www.w3.org/2000/svg"
   xmlns:svg="http://www.w3.org/2000/svg">
  <defs
     id="defs1">
    <clipPath
       clipPathUnits="userSpaceOnUse"
       id="clipPath7-63">
      <path
         d="M 0,1080 H 1920 V 0 H 0 Z"
         transform="translate(-517.52092,-183.01628)"
         id="path7-0" />
    </clipPath>
    <clipPath
       clipPathUnits="userSpaceOnUse"
       id="clipPath107-2">
      <path
         d="M 0,1080 H 1920 V 0 H 0 Z"
         transform="translate(-277.02981,-505.60852)"
         id="path107-8" />
    </clipPath>
    <clipPath
       clipPathUnits="userSpaceOnUse"
       id="clipPath2235-8">
      <path
         d="M 0,7702.534 H 9717.725 V 0 H 0 Z"
         transform="translate(-6367.0064,-1272.0211)"
         id="path2235-14" />
    </clipPath>
    <clipPath
       clipPathUnits="userSpaceOnUse"
       id="clipPath2237-5">
      <path
         d="M 0,7702.534 H 9717.725 V 0 H 0 Z"
         transform="translate(-6737.1584,-1272.0211)"
         id="path2237-5" />
    </clipPath>
    <clipPath
       clipPathUnits="userSpaceOnUse"
       id="clipPath2239-7">
      <path
         d="M 0,7702.534 H 9717.725 V 0 H 0 Z"
         transform="translate(-6424.5983,-1272.0211)"
         id="path2239-4" />
    </clipPath>
    <clipPath
       clipPathUnits="userSpaceOnUse"
       id="clipPath2241-2">
      <path
         d="M 0,7702.534 H 9717.725 V 0 H 0 Z"
         transform="translate(-6477.4475,-1272.0211)"
         id="path2241-8" />
    </clipPath>
    <clipPath
       clipPathUnits="userSpaceOnUse"
       id="clipPath2243-9">
      <path
         d="M 0,7702.534 H 9717.725 V 0 H 0 Z"
         transform="translate(-6530.2961,-1272.0211)"
         id="path2243-3" />
    </clipPath>
  </defs>
  <g
     id="layer1"
     transform="translate(-12.047741,-114.24477)">
    <path
       id="path6-0"
       d="m 0,0 h -180.955 c 0.242,4.604 2.337,6.663 6.799,6.662 21.574,-0.002 43.149,0.025 64.723,-0.11 3.427,-0.021 6.066,0.729 7.653,3.931 1.674,3.377 4.356,4.239 8.096,4.229 26.948,-0.074 53.897,0.103 80.846,0.18 C -4.94,14.914 0.938,8.122 0,0"
       style="fill:#ffffff;fill-opacity:1;fill-rule:nonzero;stroke:none"
       transform="matrix(0.56520222,0,0,0.48498019,140.78426,164.20646)"
       clip-path="url(#clipPath7-63)" />
    <path
       id="path106-4"
       d="m 0,0 c -3.471,-0.545 -6.96,-0.994 -10.408,-1.655 -5.994,-1.148 -9.313,-4.966 -10.323,-10.869 -0.554,-3.239 -0.975,-6.5 -1.835,-9.808 -0.116,0.497 -0.275,0.988 -0.342,1.492 -0.319,2.402 -0.531,4.822 -0.933,7.211 -1.318,7.842 -4.934,11.322 -12.912,12.484 -2.683,0.391 -5.377,0.701 -8.143,1.393 0.401,0.139 0.793,0.349 1.205,0.405 2.475,0.335 4.971,0.544 7.431,0.964 7.85,1.341 11.219,4.78 12.46,12.667 0.436,2.771 0.756,5.561 1.658,8.349 0.316,-2.417 0.593,-4.84 0.963,-7.249 0.223,-1.449 0.535,-2.89 0.905,-4.309 1.171,-4.497 3.925,-7.582 8.492,-8.639 C -8.359,1.644 -4.843,1.255 -1.37,0.68 -0.907,0.603 -0.451,0.488 0.008,0.39 0.005,0.26 0.003,0.13 0,0"
       style="fill:#ffffff;fill-opacity:1;fill-rule:nonzero;stroke:none"
       transform="matrix(0.56520222,0,0,-0.56520222,198.51346,127.03699)"
       clip-path="url(#clipPath107-2)" />
    <path
       d="m 35.310615,198.42374 q -0.265731,0.73814 -0.693854,1.52057 -0.413359,0.78243 -0.944822,1.432 -0.531462,0.6348 -1.166264,1.04816 -0.634803,0.41336 -1.343419,0.41336 H 22.03882 q -0.708617,0 -1.048162,-0.41336 -0.324783,-0.41336 -0.369071,-0.82672 -0.04429,-0.42812 -0.04429,-0.62004 0,-0.48717 0.132866,-1.1515 0.132865,-0.66433 0.398597,-1.40247 l 10.186361,-27.99035 q 0.265731,-0.73814 0.67909,-1.52057 0.428123,-0.78243 0.959585,-1.41723 0.531462,-0.64957 1.166265,-1.06293 0.634802,-0.41336 1.343418,-0.41336 l 9.108674,0.0443 q 0.708616,0 1.033399,0.41336 0.339545,0.41336 0.383834,0.84148 0.04429,0.41336 0.04429,0.60528 0,0.48717 -0.132865,1.1515 -0.132866,0.64956 -0.398597,1.38771 z m 15.560036,3.38069 q 0.339545,0 0.634802,-0.17715 0.310019,-0.17716 0.546225,-0.45765 0.250968,-0.29526 0.442885,-0.64957 0.191917,-0.3543 0.324783,-0.72338 l 1.742015,-4.78316 q 0.31002,-0.871 0.811956,-1.80106 0.501937,-0.93006 1.136739,-1.69773 0.634802,-0.76767 1.387707,-1.25484 0.752905,-0.50194 1.579624,-0.50194 l 8.193378,-0.0738 q 0.560988,-0.0148 0.915296,0.22144 0.354308,0.22144 0.546225,0.60528 0.20668,0.38383 0.250969,0.90053 0.04429,0.5167 -0.01476,1.09245 -0.05905,0.57575 -0.221443,1.19579 -0.147628,0.60528 -0.354308,1.18103 -0.236206,0.67909 -0.546225,1.53533 -0.31002,0.84149 -0.693854,1.72726 -0.383834,0.88577 -0.856245,1.72725 -0.472411,0.84148 -1.048162,1.50581 -0.57575,0.66433 -1.269604,1.06292 -0.679091,0.3986 -1.491047,0.3986 H 38.130318 q -0.826719,0 -1.225316,-0.48717 -0.398597,-0.50194 -0.472411,-1.25485 -0.07381,-0.76766 0.10334,-1.69772 0.177154,-0.93006 0.487174,-1.80107 l 3.631659,-9.96492 q 0.310019,-0.87101 0.811956,-1.80106 0.501937,-0.93006 1.136739,-1.69773 0.634802,-0.76767 1.387707,-1.25484 0.752905,-0.48718 1.579624,-0.48718 h 10.570195 q 0.826719,0 1.579624,-0.48717 0.752905,-0.48717 1.387707,-1.24008 0.634803,-0.76767 1.121976,-1.69773 0.501937,-0.93006 0.82672,-1.80106 l 2.952568,-8.13433 q 0.132866,-0.35431 0.191917,-0.72338 0.07381,-0.36907 0.04429,-0.66433 -0.02952,-0.31002 -0.191916,-0.50193 -0.147629,-0.19192 -0.487174,-0.19192 -0.324783,0 -0.634802,0.19192 -0.295257,0.19191 -0.560988,0.50193 -0.250969,0.29526 -0.442886,0.66433 -0.191917,0.36907 -0.324782,0.72338 l -1.181028,3.27735 q -0.324782,0.87101 -0.826719,1.80107 -0.487174,0.93006 -1.121976,1.69773 -0.634802,0.7529 -1.387707,1.24007 -0.752905,0.48718 -1.579624,0.48718 h -8.163852 q -0.826719,0 -1.225316,-0.48718 -0.398596,-0.48717 -0.487173,-1.24007 -0.07381,-0.76767 0.103339,-1.69773 0.177155,-0.93006 0.501937,-1.80107 0.236206,-0.6348 0.5167,-1.34342 0.295256,-0.70861 0.664327,-1.40247 0.369072,-0.69385 0.797194,-1.32865 0.428122,-0.6348 0.944822,-1.10722 0.516699,-0.48717 1.107213,-0.76766 0.590514,-0.29526 1.254842,-0.29526 h 24.757286 q 0.826719,0 1.210553,0.48717 0.398597,0.48718 0.472411,1.25485 0.08858,0.76766 -0.10334,1.68296 -0.177154,0.9153 -0.487174,1.7863 l -3.203537,8.75437 q -0.310019,0.87101 -0.811956,1.80107 -0.501937,0.93005 -1.136739,1.69772 -0.634802,0.75291 -1.40247,1.25484 -0.752905,0.48718 -1.579624,0.48718 H 58.70972 q -0.826719,0 -1.579624,0.48717 -0.752905,0.48718 -1.387708,1.25484 -0.634802,0.75291 -1.136738,1.68297 -0.487174,0.93006 -0.811957,1.80106 l -3.336402,9.16773 q -0.118103,0.32478 -0.191917,0.70861 -0.07381,0.36908 -0.05905,0.69386 0.02952,0.32478 0.177154,0.53146 0.162391,0.20668 0.487174,0.20668 z m 32.4192,0 q 0.339546,0 0.634803,-0.17715 0.310019,-0.17716 0.546225,-0.45765 0.250968,-0.29526 0.442885,-0.64957 0.191917,-0.3543 0.324783,-0.72338 l 1.742015,-4.78316 q 0.31002,-0.871 0.811956,-1.80106 0.501937,-0.93006 1.136739,-1.69773 0.634802,-0.76767 1.387707,-1.25484 0.752905,-0.50194 1.579624,-0.50194 l 8.193382,-0.0738 q 0.56098,-0.0148 0.91529,0.22144 0.35431,0.22144 0.54623,0.60528 0.20668,0.38383 0.25097,0.90053 0.0443,0.5167 -0.0148,1.09245 -0.059,0.57575 -0.22144,1.19579 -0.14763,0.60528 -0.35431,1.18103 -0.2362,0.67909 -0.54622,1.53533 -0.31002,0.84149 -0.693857,1.72726 -0.383834,0.88577 -0.856245,1.72725 -0.472411,0.84148 -1.048162,1.50581 -0.57575,0.66433 -1.269604,1.06292 -0.679091,0.3986 -1.491047,0.3986 H 70.549519 q -0.826719,0 -1.225316,-0.48717 -0.398597,-0.50194 -0.472411,-1.25485 -0.07381,-0.76766 0.10334,-1.69772 0.177154,-0.93006 0.487174,-1.80107 l 3.631659,-9.96492 q 0.310019,-0.87101 0.811956,-1.80106 0.501937,-0.93006 1.136739,-1.69773 0.634802,-0.76767 1.387707,-1.25484 0.752905,-0.48718 1.579624,-0.48718 h 10.570195 q 0.826719,0 1.579624,-0.48717 0.752905,-0.48717 1.387707,-1.24008 0.634803,-0.76767 1.121976,-1.69773 0.501937,-0.93006 0.826719,-1.80106 l 2.952569,-8.13433 q 0.132865,-0.35431 0.191917,-0.72338 0.07381,-0.36907 0.04429,-0.66433 -0.02952,-0.31002 -0.191917,-0.50193 -0.147628,-0.19192 -0.487173,-0.19192 -0.324783,0 -0.634803,0.19192 -0.295256,0.19191 -0.560988,0.50193 -0.250968,0.29526 -0.442885,0.66433 -0.191917,0.36907 -0.324782,0.72338 l -1.181028,3.27735 q -0.324782,0.87101 -0.826719,1.80107 -0.487174,0.93006 -1.121976,1.69773 -0.634802,0.7529 -1.387707,1.24007 -0.752905,0.48718 -1.579624,0.48718 h -8.163852 q -0.826719,0 -1.225316,-0.48718 -0.398596,-0.48717 -0.487174,-1.24007 -0.07381,-0.76767 0.10334,-1.69773 0.177154,-0.93006 0.501937,-1.80107 0.236205,-0.6348 0.516699,-1.34342 0.295257,-0.70861 0.664328,-1.40247 0.369071,-0.69385 0.797194,-1.32865 0.428122,-0.6348 0.944822,-1.10722 0.516699,-0.48717 1.107213,-0.76766 0.590514,-0.29526 1.254841,-0.29526 H 108.6967 q 0.82672,0 1.21056,0.48717 0.39859,0.48718 0.47241,1.25485 0.0886,0.76766 -0.10334,1.68296 -0.17716,0.9153 -0.48718,1.7863 l -3.20353,8.75437 q -0.31002,0.87101 -0.81196,1.80107 -0.50194,0.93005 -1.13674,1.69772 -0.6348,0.75291 -1.40247,1.25484 -0.7529,0.48718 -1.57962,0.48718 H 91.128921 q -0.82672,0 -1.579625,0.48717 -0.752904,0.48718 -1.387707,1.25484 -0.634802,0.75291 -1.136739,1.68297 -0.487173,0.93006 -0.811956,1.80106 l -3.336402,9.16773 q -0.118103,0.32478 -0.191917,0.70861 -0.07381,0.36908 -0.05905,0.69386 0.02953,0.32478 0.177154,0.53146 0.162391,0.20668 0.487173,0.20668 z m 32.448729,-0.0443 q 0.33954,0 0.6348,-0.19191 0.31002,-0.20668 0.56099,-0.5167 0.25097,-0.31002 0.44288,-0.6791 0.20668,-0.36907 0.32479,-0.70861 l 10.83592,-29.76189 q 0.23621,-0.64957 0.60528,-1.32866 0.36907,-0.67909 0.82672,-1.24008 0.47241,-0.56098 1.01863,-0.91529 0.54623,-0.35431 1.16627,-0.35431 h 9.43345 q 0.70862,0 1.0334,0.41336 0.33955,0.41336 0.38384,0.84148 0.0443,0.41336 0.0443,0.60528 0,0.48717 -0.13287,1.1515 -0.13287,0.64956 -0.3986,1.38771 l -13.69991,37.66001 q -0.31002,0.85624 -0.78243,1.77154 -0.47242,0.93006 -1.06293,1.80106 -0.59051,0.87101 -1.29913,1.62392 -0.69385,0.76767 -1.46152,1.29913 l -12.41555,8.59197 q -0.36907,0.25097 -0.76767,0.44289 -0.38383,0.20668 -0.72338,0.20668 -0.31002,0 -0.47241,-0.17716 -0.16239,-0.17715 -0.20668,-0.41336 -0.0443,-0.22144 -0.0443,-0.41336 0,-0.13286 0.0295,-0.39859 0.0295,-0.25097 0.1181,-0.63481 0.0886,-0.36907 0.19192,-0.73814 0.1181,-0.35431 0.22144,-0.6348 l 4.51743,-12.37126 q 0.31002,-0.87101 0.45765,-1.6682 0.14763,-0.78243 0.14763,-1.35818 0,-0.23621 -0.0443,-0.73815 -0.0443,-0.48717 -0.44289,-0.98911 -0.39859,-0.48717 -1.22531,-0.48717 h -11.05737 q -0.70862,0 -1.04816,-0.41336 -0.32479,-0.41336 -0.36907,-0.82672 -0.0443,-0.42812 -0.0443,-0.62004 0,-0.48717 0.13286,-1.1515 0.13287,-0.66433 0.3986,-1.40247 l 10.1716,-27.96082 q 0.26573,-0.73815 0.67909,-1.50581 0.42812,-0.78243 0.95958,-1.41724 0.53147,-0.64956 1.16627,-1.06292 0.6348,-0.41336 1.34342,-0.41336 h 9.4925 q 0.60528,0 0.90054,0.35431 0.29525,0.35431 0.32478,0.72338 0.0443,0.36907 0.0443,0.54622 0,0.41336 -0.1181,0.98911 -0.10334,0.57575 -0.33955,1.22532 l -10.89498,29.77665 q -0.13286,0.35431 -0.19191,0.66433 -0.0591,0.31002 -0.0591,0.53146 0,0.10334 0.0148,0.31002 0.0295,0.19192 0.19191,0.38384 0.1624,0.19191 0.48718,0.19191 z"
       id="text7848"
       style="font-style:italic;font-size:30.2343px;font-family:'Kabisat Demo';-inkscape-font-specification:'Kabisat Demo Italic';fill:#ffffff;fill-opacity:1;stroke:#ffffff;stroke-width:0"
       transform="scale(1.2535418,0.79773965)"
       aria-label="Izzy" />
    <path
       id="path2234-5"
       d="m 0,0 h -173.544 -132.694 c -22.639,0 -50.854,-14.726 -63.021,-32.891 l -24.651,-36.805 c -6.084,-9.083 -1.839,-16.446 9.48,-16.446 h 107.322 c 25.332,0 56.904,16.478 70.519,36.805 6.083,9.083 20.191,16.446 31.51,16.446 H -22.03 c 11.319,0 25.427,7.363 31.51,16.445 v 0 C 15.564,-7.363 11.319,0 0,0"
       style="fill:#ffffff;fill-opacity:1;fill-rule:nonzero;stroke:none"
       transform="matrix(0.14303029,0,0,-0.14303029,68.786034,125.78836)"
       clip-path="url(#clipPath2235-8)" />
    <path
       id="path2236-2"
       d="m 0,0 h -152.435 c -11.319,0 -25.427,-7.363 -31.51,-16.446 v 0 c -6.083,-9.082 -1.839,-16.445 9.48,-16.445 h 153.294 c 11.528,0 25.95,7.638 31.839,16.951 C 16.36,-6.939 11.222,0 0,0"
       style="fill:#ffffff;fill-opacity:1;fill-rule:nonzero;stroke:none"
       transform="matrix(0.14303029,0,0,-0.14303029,121.72897,125.78836)"
       clip-path="url(#clipPath2237-5)" />
    <path
       id="path2238-6"
       d="m 0,0 c -11.323,0 -25.436,-7.366 -31.522,-16.452 -6.085,-9.086 -1.84,-16.452 9.484,-16.452 11.323,0 25.436,7.366 31.522,16.452 C 15.569,-7.366 11.324,0 0,0"
       style="fill:#ffffff;fill-opacity:1;fill-rule:nonzero;stroke:none"
       transform="matrix(0.14303029,0,0,-0.14303029,77.023387,125.78836)"
       clip-path="url(#clipPath2239-7)" />
    <path
       id="path2240-8"
       d="m 0,0 c -11.324,0 -25.437,-7.366 -31.522,-16.452 -6.086,-9.086 -1.84,-16.452 9.483,-16.452 11.324,0 25.437,7.366 31.522,16.452 C 15.569,-7.366 11.323,0 0,0"
       style="fill:#ffffff;fill-opacity:1;fill-rule:nonzero;stroke:none"
       transform="matrix(0.14303029,0,0,-0.14303029,84.582479,125.78836)"
       clip-path="url(#clipPath2241-2)" />
    <path
       id="path2242-9"
       d="m 0,0 c -11.324,0 -25.437,-7.366 -31.522,-16.452 -6.086,-9.086 -1.84,-16.452 9.483,-16.452 11.324,0 25.437,7.366 31.523,16.452 C 15.569,-7.366 11.323,0 0,0"
       style="fill:#ffffff;fill-opacity:1;fill-rule:nonzero;stroke:none"
       transform="matrix(0.14303029,0,0,-0.14303029,92.141387,125.78836)"
       clip-path="url(#clipPath2243-9)" />
  </g>
</svg>
